<?xml version="1.0" encoding="UTF-8"?>
<!-- Created with Inkscape (http://www.inkscape.org/) -->
<svg width="256" height="256" version="1.0" viewBox="0 0 256 256" xmlns="http://www.w3.org/2000/svg">
 <g transform="translate(-257.52 -275.48)">
  <g transform="matrix(.67328 0 0 .67328 137.17 130.4)">
   <g transform="translate(2.9154 38.218)" stroke-width="2.9937">
    <path d="m182.03 339.44c8.5021 97.235 71.16 155.85 176.42 173.07-3.4727-120.5-83.823-154.83-176.42-173.07z" fill="#3daee9"/>
    <path d="m276.06 349.83 10.628-49.875c-17.932-15.388-49.096-23.77-79.752-31.823-0.7185 18.351 2.0357 38.529 4.0115 58.407 23.8 3.9816 45.294 12.065 65.113 23.291z" fill="#00689e"/>
    <path d="m456.64 349.83-10.628-49.875c17.932-15.388 49.096-23.77 79.752-31.823 0.71849 18.351-2.0357 38.529-4.0115 58.407-23.8 3.9816-45.265 12.065-65.113 23.291z" fill="#00689e"/>
    <path d="m295.37 356.03c6.9154-55.503 16.226-97.445 71.429-133.79 39.517 31.254 60.383 50.025 70.142 134.42-29.099 6.9753-55.054 38.379-70.471 86.368-14.879-47.21-38.828-75.68-71.1-86.997z" fill="#002b59"/>
    <path d="m549.89 339.44c-8.5021 97.235-71.16 155.85-176.42 173.07 3.4727-120.5 83.823-154.83 176.42-173.07z" fill="#3daee9"/>
   </g>
  </g>
 </g>
</svg>
